HIERARCHY
ROOT Hips
{
  OFFSET -331.093 83.8371 -317.828
  CHANNELS 6 Xposition Yposition Zposition Zrotation Xrotation Yrotation
  JOINT LeftUpLeg
  {
    OFFSET 8.64259 1.95398 -2.38835
    CHANNELS 3 Zrotation Xrotation Yrotation
    JOINT LeftLeg
    {
      OFFSET 43.7702 0 0
      CHANNELS 3 Zrotation Xrotation Yrotation
      JOINT LeftFoot
      {
        OFFSET 40.6238 0 0
        CHANNELS 3 Zrotation Xrotation Yrotation
        JOINT LeftToeBase
        {
          OFFSET 12.7242 0 0
          CHANNELS 3 Zrotation Xrotation Yrotation
          End Site
          {
            OFFSET 0 0 0
          }
        }
      }
    }
  }
  JOINT RightUpLeg
  {
    OFFSET -8.2249 1.95398 -2.59336
    CHANNELS 3 Zrotation Xrotation Yrotation
    JOINT RightLeg
    {
      OFFSET 43.5653 0 0
      CHANNELS 3 Zrotation Xrotation Yrotation
      JOINT RightFoot
      {
        OFFSET 40.6238 0 0
        CHANNELS 3 Zrotation Xrotation Yrotation
        JOINT RightToeBase
        {
          OFFSET 12.7242 0 0
          CHANNELS 3 Zrotation Xrotation Yrotation
          End Site
          {
            OFFSET 0 0 0
          }
        }
      }
    }
  }
  JOINT Spine
  {
    OFFSET 0.165834 0.87714 6.61349
    CHANNELS 3 Zrotation Xrotation Yrotation
    JOINT Spine1
    {
      OFFSET 7.38963 1.71661e-005 0
      CHANNELS 3 Zrotation Xrotation Yrotation
      JOINT Spine2
      {
        OFFSET 11.9445 1.14441e-005 0
        CHANNELS 3 Zrotation Xrotation Yrotation
        JOINT Spine3
        {
          OFFSET 14.7254 4.19617e-005 0
          CHANNELS 3 Zrotation Xrotation Yrotation
          JOINT Spine4
          {
            OFFSET 10.9679 0 0
            CHANNELS 3 Zrotation Xrotation Yrotation
            JOINT RightShoulder
            {
              OFFSET 2.46616 -1.6653 3.69651
              CHANNELS 3 Zrotation Xrotation Yrotation
              JOINT RightArm
              {
                OFFSET 13.0012 0 0
                CHANNELS 3 Zrotation Xrotation Yrotation
                JOINT RightForeArm
                {
                  OFFSET 28.7848 1.62311e-005 0
                  CHANNELS 3 Zrotation Xrotation Yrotation
                  JOINT RightHand
                  {
                    OFFSET 26.5688 1.62095e-005 0
                    CHANNELS 3 Zrotation Xrotation Yrotation
                    End Site
                    {
                      OFFSET 0 0 0
                    }
                  }
                }
              }
            }
            JOINT LeftShoulder
            {
              OFFSET 2.38034 -1.29275 -3.7523
              CHANNELS 3 Zrotation Xrotation Yrotation
              JOINT LeftArm
              {
                OFFSET 16.3182 6.07031e-005 0
                CHANNELS 3 Zrotation Xrotation Yrotation
                JOINT LeftForeArm
                {
                  OFFSET 27.0901 0 0
                  CHANNELS 3 Zrotation Xrotation Yrotation
                  JOINT LeftHand
                  {
                    OFFSET 24.5451 1.51738e-005 0
                    CHANNELS 3 Zrotation Xrotation Yrotation
                    End Site
                    {
                      OFFSET 0 0 0
                    }
                  }
                }
              }
            }
            JOINT Neck
            {
              OFFSET 5.0226 -0.0266342 0
              CHANNELS 3 Zrotation Xrotation Yrotation
              JOINT Head
              {
                OFFSET 6.69364 2.86102e-005 0
                CHANNELS 3 Zrotation Xrotation Yrotation
                End Site
                {
                  OFFSET 0 0 0
                }
              }
            }
          }
        }
      }
    }
  }
}
MOTION
Frames:	16
Frame Time:	0.0416667
-6.89977 99.3246 -41.8585 -82.4371 -86.2185 -83.1095 -175.393 5.77028 91.1389 -10.3618 7.55968 -0.362854 62.3438 1.31636 0.796877 28.9905 0.0284794 -0.578006 171.846 4.66444 88.5363 -12.3735 -6.92476 -2.71424 65.3877 -2.6887 -1.4822 28.9017 -0.0281667 -0.218864 -0.116569 6.86749 -89.9723 13.1437 -0.217962 0.0824649 1.47282 -0.214109 0.0919701 -21.0625 -0.232668 0.0131495 -1.04984 -0.232669 0.0131433 91.3534 -39.6249 -100.792 34.135 -14.8812 1.06479 -8.71435 -13.4227 -39.1536 -5.37392 -0.384401 1.74785 -99.2 -50.8338 65.9942 -19.4816 12.5965 2.24118 5.10587 15.6774 -33.3671 14.6045 0.988798 2.85273 8.33431 1.55398 2.13702 -11.2618 1.11059 -0.44638 
-6.91549 99.3234 -41.7985 -82.9841 -86.1042 -83.6773 -175.284 5.61209 91.2058 -10.2241 8.26914 -0.491576 62.3136 1.47299 1.03648 29.1582 0.394977 0.519855 171.841 4.74475 88.5491 -12.5821 -6.71804 -2.71306 65.3486 -2.61985 -1.44874 29.2568 0.00906768 0.141603 -0.118067 6.86753 -89.9872 13.1534 -0.228162 0.053812 1.48249 -0.225571 0.0637882 -21.0528 -0.233785 -0.0172469 -1.04017 -0.233791 -0.0172631 91.3745 -39.3697 -100.823 34.1741 -15.4566 0.942891 -9.40462 -15.2904 -38.4541 -6.22189 -0.485664 2.98326 -99.0306 -50.8524 66.2438 -20.0101 11.9302 2.48612 5.68035 15.8079 -34.0737 13.4864 1.18642 4.77073 8.53036 1.57051 2.05109 -11.7715 1.09158 0.162442 
-6.91213 99.3478 -41.7889 -83.4245 -86.1111 -84.1036 -175.262 5.50826 91.224 -10.0788 8.04593 -0.488678 62.2799 1.4466 0.916832 28.9535 0.161633 0.154794 171.832 4.87008 88.5457 -12.8578 -6.68624 -2.69846 65.1736 -2.47642 -1.3779 29.5769 0.00367957 0.141563 -0.114925 6.86754 -89.9903 13.1366 -0.223366 0.0471358 1.46564 -0.22107 0.0569167 -21.0697 -0.22721 -0.0221769 -1.05702 -0.227208 -0.0221773 91.4004 -39.3661 -100.779 34.2076 -15.4435 1.06597 -9.49603 -15.1314 -38.949 -5.87346 -0.47562 3.34659 -99.1219 -50.9137 66.1343 -19.9061 11.9443 2.37211 5.43477 15.5556 -33.9069 13.3232 1.18974 4.89799 8.52796 1.50033 2.08203 -11.6835 1.02348 0.0717366 
-6.90804 99.3456 -41.7545 -82.7548 -86.133 -83.4513 -175.301 5.43336 91.1797 -9.90307 8.20145 -0.470614 62.2165 1.56933 1.15922 29.2271 0.362548 0.144716 171.83 4.99321 88.4737 -13.1455 -7.21609 -2.73005 65.215 -2.47372 -1.37977 29.8281 -0.0828375 -0.508001 -0.116785 6.86754 -89.9954 13.1352 -0.229539 0.0376818 1.4643 -0.22766 0.047739 -21.071 -0.230261 -0.0330433 -1.05838 -0.230255 -0.0330534 91.4819 -39.1338 -100.7 34.4598 -15.5281 1.02795 -9.53196 -15.3862 -38.7515 -6.136 -0.491408 3.25582 -99.1845 -51.0004 66.0743 -19.9094 11.9402 2.36806 5.35595 15.4882 -33.8317 13.2915 1.13931 4.55208 8.37582 1.56362 2.22286 -11.4866 1.07542 -0.127798 
-6.93307 99.3296 -41.7188 -81.2568 -86.1481 -81.8643 -175.236 5.74599 91.3076 -10.3556 8.1627 -0.498127 62.4733 1.4639 0.831728 28.8339 0.0986877 0.272505 171.895 4.85171 88.6214 -12.7584 -6.91147 -2.70303 65.3568 -2.62134 -1.45218 29.3237 -0.029456 -0.162914 -0.105031 6.86754 -90.012 13.1388 -0.21418 0.00253545 1.46789 -0.213855 0.0119586 -21.0674 -0.205038 -0.0619499 -1.05475 -0.205037 -0.0619527 91.5489 -38.9942 -100.619 34.502 -15.5672 1.11474 -9.56423 -15.2102 -39.25 -5.84279 -0.478777 3.49122 -99.2881 -51.0416 65.9414 -19.909 11.8132 2.2928 5.45285 15.5782 -33.8748 13.2338 1.12421 4.47681 8.39793 1.62295 2.41491 -11.5389 1.11034 -0.339697 
-6.92818 99.331 -41.5855 -81.8156 -86.3803 -82.4792 -175.25 5.47903 91.2456 -10.0699 8.60446 -0.513818 62.2809 1.56255 1.14345 29.3874 0.56357 0.507802 171.692 4.69564 88.4749 -12.7489 -6.9619 -2.6057 65.357 -2.58138 -1.43328 29.5231 -0.0628038 -0.400491 -0.128402 6.87212 -90.0111 13.1297 -0.260153 0.0100649 1.45876 -0.259461 0.0215002 -21.0766 -0.251151 -0.0685891 -1.06395 -0.251157 -0.0685945 91.3442 -39.2729 -100.902 34.3323 -15.288 1.38838 -9.77493 -15.2396 -39.3059 -5.90949 -0.483868 3.49268 -99.48 -51.0963 65.6866 -20.0409 11.6458 2.55789 5.59278 15.6619 -33.9403 13.2209 1.07035 4.09287 8.13959 1.57512 2.30219 -11.3141 1.07112 -0.0825564 
-6.92093 99.3315 -41.5411 -82.295 -86.2878 -83.0235 -175.298 5.39143 91.1594 -10.0291 8.47999 -0.484986 62.2721 1.57582 1.15613 29.2975 0.502604 0.535887 171.72 4.73289 88.4182 -12.8879 -7.03643 -2.67695 65.4323 -2.5958 -1.4422 29.5142 -0.0616182 -0.392517 -0.125873 6.88324 -89.9968 13.1083 -0.248262 0.0371174 1.43736 -0.246384 0.0479928 -21.098 -0.247937 -0.0392116 -1.08534 -0.247938 -0.0392177 91.3914 -39.2539 -100.824 34.352 -15.3585 1.27786 -9.69665 -15.1829 -39.3235 -5.71778 -0.469457 3.47072 -99.482 -51.128 65.6953 -19.9557 11.6569 2.55509 5.61964 15.6238 -34.0672 13.0055 1.10762 4.48807 8.25376 1.59716 2.3196 -11.4105 1.09323 -0.160661 
-6.90629 99.3368 -41.4722 -81.9341 -86.2618 -82.5888 -175.299 5.52053 91.2074 -10.3539 8.09763 -0.418267 62.5677 1.52207 0.790486 28.8751 0.232763 0.74448 171.72 4.57595 88.4867 -12.595 -6.80862 -2.64835 65.3597 -2.60533 -1.44357 29.4244 0.0227858 0.274496 -0.130256 6.88425 -90.0036 13.0949 -0.260251 0.0249864 1.42399 -0.258889 0.0364057 -21.1114 -0.255727 -0.0543875 -1.09873 -0.255729 -0.0543904 91.3545 -39.2768 -100.883 34.405 -15.3207 1.18847 -9.70914 -15.1337 -39.0846 -5.70884 -0.462635 3.28379 -99.4561 -51.0973 65.7213 -20.0427 11.5556 2.59171 5.58128 15.434 -34.1426 13.0729 1.17268 4.92344 8.33944 1.65098 2.39972 -11.5294 1.14307 -0.347739 
-6.93648 99.3057 -41.3437 -79.3354 -86.236 -79.9492 -175.273 5.67054 91.2287 -10.4264 8.53419 -0.483014 62.3942 1.82451 1.6424 29.4531 0.560959 0.279659 171.85 4.68817 88.5784 -12.7082 -6.85471 -2.71594 65.4823 -2.64575 -1.46555 29.6896 -0.042879 -0.214598 -0.11277 6.8802 -89.9869 13.1043 -0.217478 0.0530315 1.43338 -0.214939 0.0625522 -21.1019 -0.223371 -0.0147761 -1.08926 -0.223363 -0.0147827 91.4177 -39.5264 -100.706 34.3107 -15.2735 1.0657 -9.65343 -15.2718 -38.78 -5.84134 -0.463204 3.01977 -99.1712 -50.7157 65.9945 -20.2692 11.4871 2.20352 5.59373 15.7617 -33.7857 13.0652 1.17473 4.94462 8.45095 1.50625 1.7925 -11.3917 1.09592 0.0331974 
-6.97255 99.293 -41.2725 -78.178 -86.0637 -78.758 -175.111 5.97587 91.3608 -10.9438 8.32946 -0.619271 62.8147 1.93267 1.26975 29.3918 0.566132 0.50432 171.904 4.73472 88.63 -12.6471 -6.87594 -2.73035 65.5088 -2.68417 -1.48402 29.5258 0.0263054 0.314928 -0.0923836 6.88304 -89.9899 13.1082 -0.178447 0.0422984 1.43729 -0.176407 0.0501007 -21.098 -0.182914 -0.0132806 -1.08533 -0.182913 -0.013295 91.4191 -39.5271 -100.704 34.2058 -15.3924 1.07201 -9.48971 -14.9339 -38.7298 -5.68759 -0.433955 2.47121 -99.2147 -50.808 65.9643 -20.1993 11.34 2.24646 5.8571 16.09 -33.9091 13.2808 1.14976 4.63442 8.69855 1.43722 1.95492 -11.5987 1.02204 -0.362327 
-6.92481 99.276 -41.0342 -78.9678 -86.1545 -79.4658 -174.934 5.93852 91.4837 -11.2715 8.86993 -0.76599 62.9376 2.24247 1.6908 29.6046 0.692637 0.361612 171.746 4.43893 88.5721 -12.5572 -7.03804 -2.63938 65.6315 -2.75379 -1.51974 29.6035 0.040636 0.437153 -0.104398 6.88959 -90.0044 13.0947 -0.209271 0.0171138 1.4238 -0.208317 0.0262978 -21.1115 -0.204747 -0.0465761 -1.09883 -0.204742 -0.0465772 91.3842 -39.3283 -100.818 34.4292 -15.2477 1.27178 -9.67199 -15.1359 -38.8823 -5.85359 -0.456902 2.82464 -99.0942 -50.8909 66.1657 -20.1884 11.5404 2.2013 5.56939 15.8169 -33.6931 13.5816 1.1677 4.59069 8.37221 1.35014 2.13988 -11.2082 0.911217 -0.482086 
-6.73148 99.248 -40.7899 -77.557 -85.8942 -78.3117 -175.047 5.94486 91.0829 -11.4119 8.06432 -0.776598 63.1705 2.35729 1.52068 29.6028 0.654117 0.199499 171.534 4.66127 88.1495 -12.8754 -7.71056 -2.65467 65.7135 -2.7436 -1.51818 30.1384 0.0140278 0.293548 -0.0742657 6.87949 -89.9596 13.115 -0.127945 0.096604 1.44403 -0.123557 0.102134 -21.0912 -0.151064 0.0536831 -1.07852 -0.151058 0.0536883 91.2947 -39.7975 -100.848 33.9531 -15.2914 1.20174 -9.53421 -15.5805 -38.441 -6.17871 -0.482337 2.90021 -99.0226 -50.7488 66.2184 -20.2497 11.7325 2.26144 5.30838 15.3528 -33.6905 13.5369 1.14013 4.42046 8.25077 1.2841 1.50064 -10.8631 0.92413 0.274912 
-6.44121 99.2239 -40.542 -76.7326 -85.7509 -77.7915 -174.916 5.92309 90.7493 -11.5346 8.5169 -1.1477 63.2082 2.66742 1.84796 29.8065 0.969513 0.902448 171.213 4.74132 87.5972 -12.9905 -8.24448 -2.65708 65.9223 -2.78691 -1.54324 30.4789 -0.00383448 0.193474 -0.0649292 6.89603 -89.9612 13.0818 -0.110182 0.0911803 1.41089 -0.106053 0.0959403 -21.1243 -0.132491 0.0538532 -1.11165 -0.132487 0.0538515 91.4608 -39.2548 -100.704 34.1238 -15.2254 1.33108 -9.77611 -15.6065 -39.4438 -5.421 -0.453569 3.58551 -99.4111 -51.1297 65.7964 -20.317 11.5372 2.49139 5.68629 15.428 -34.2433 13.7095 1.19871 4.73711 8.32506 1.50188 2.27709 -10.6468 1.02444 -0.411262 
-6.10612 99.1517 -40.2639 -73.2167 -85.1997 -74.1762 -175.034 6.70498 90.553 -12.7421 8.01181 -1.0792 63.5014 2.9685 2.21416 30.5335 1.64012 1.39696 171.199 4.83774 87.5063 -12.6214 -8.99495 -2.67371 65.7613 -2.7453 -1.51714 31.1987 -0.167502 -0.908781 -0.00788529 6.8923 -89.9638 13.0893 0.00182866 0.0721535 1.41834 0.0050062 0.071998 -21.1168 -0.0199433 0.0693655 -1.10417 -0.0199475 0.0693624 91.3928 -39.4854 -100.761 33.6725 -15.1946 1.02318 -9.28452 -15.4151 -38.4734 -6.39251 -0.495241 2.89575 -99.2132 -50.9729 66.0241 -20.5361 11.7009 2.26817 5.7554 15.5329 -34.3269 12.8534 1.14161 4.82758 8.405 1.47406 1.54761 -10.2984 1.09962 0.267871 
-5.56791 99.0639 -39.8662 -69.0506 -85.1687 -70.0086 -175.282 7.68127 90.1028 -14.6314 7.44593 -0.933046 64.3891 3.57717 2.21178 30.9811 2.26568 2.51165 171.153 4.89199 87.2196 -12.4778 -8.98818 -2.79889 65.9162 -2.80933 -1.54933 32.3508 -0.373762 -2.02029 -0.00977827 6.89848 -89.9895 13.0769 -0.0143195 0.0226843 1.40599 -0.0133116 0.0232931 -21.1292 -0.0204821 0.0173297 -1.11652 -0.0204714 0.0173426 91.4061 -39.6156 -100.703 33.0657 -15.1579 1.24692 -9.36194 -15.1559 -39.1216 -6.34415 -0.505158 3.2752 -99.2253 -50.9761 66.0079 -21.0243 11.8322 1.98865 5.68657 15.6205 -34.1829 13.3205 1.1696 4.75439 8.2781 1.48905 1.70117 -9.90709 1.08862 0.204987 
-4.95253 98.9126 -39.5148 -65.3386 -85.0834 -66.3447 -175.562 8.71436 89.5102 -16.6953 6.47723 -0.753574 65.9118 4.40834 1.8089 30.5392 2.09257 3.19751 171.081 5.12324 86.8598 -12.6008 -8.70765 -2.91283 66.2184 -3.0255 -1.65643 34.4267 -0.550705 -2.70948 -0.0102634 6.91102 -89.9944 13.0518 -0.0176419 0.013362 1.38088 -0.0170333 0.0141294 -21.1543 -0.0208441 0.0074475 -1.14164 -0.0208443 0.0074465 91.4061 -39.3428 -100.775 33.2928 -14.4863 1.47134 -9.47338 -15.0492 -39.2165 -6.08624 -0.488145 3.30593 -99.3641 -51.0896 65.8496 -21.2144 11.8428 1.91787 5.9389 15.9055 -34.3368 13.3926 1.21497 5.03605 7.81901 1.47811 1.43512 -9.23503 1.13083 0.37554 
